<?xml version="1.0" encoding="utf-8"?>
<!-- Generator: Adobe Illustrator 19.2.0, SVG Export Plug-In . SVG Version: 6.00 Build 0)  -->
<svg version="1.1" id="Layer_1" xmlns="http://www.w3.org/2000/svg" xmlns:xlink="http://www.w3.org/1999/xlink" x="0px" y="0px"
	 viewBox="0 0 197.2 201.1" style="enable-background:new 0 0 197.2 201.1;" xml:space="preserve">
<style type="text/css">
	.st0{fill:#9DA6AE;}
</style>
<path class="st0" d="M192.6,183.6l-13.2,13.2c-4.7,4.7-12.3,4.7-17,0l-42.6-42.6c-4.7-4.7-4.7-12.3,0-17l13.2-13.2
	c4.7-4.7,12.3-4.7,17,0l42.6,42.6C197.3,171.3,197.3,178.9,192.6,183.6z"/>
<path class="st0" d="M80.7,158.8c-43.1,0-78.2-35.1-78.2-78.2c0-43.1,35.1-78.2,78.2-78.2c43.1,0,78.2,35.1,78.2,78.2
	C158.9,123.7,123.8,158.8,80.7,158.8z M80.7,21.5c-32.6,0-59.1,26.5-59.1,59.1c0,32.6,26.5,59.1,59.1,59.1
	c32.6,0,59.1-26.5,59.1-59.1C139.8,48,113.3,21.5,80.7,21.5z"/>
</svg>
